<svg width="660" height="342" viewBox="0 0 660 342" fill="none" xmlns="http://www.w3.org/2000/svg">
<path d="M88.0281 44C47.2813 293.904 72.0163 301.669 88.0281 305C104.04 308.331 140.448 310.801 178 190C178 190 163.528 296.573 225.528 305C287.528 313.427 280.5 154 280.5 154C280.5 154 285.528 333.5 324.028 319C362.528 304.5 419 22 419 22C419 22 381.028 291 431.028 305C481.028 319 492.5 203 492.5 203C492.5 203 484.028 290.5 531.028 310C578.028 329.5 620.028 296.5 620.028 252C620.028 207.5 572.028 119 554.028 129C536.028 139 532.5 232.5 562 218.5L637.5 169" stroke="#33C85A" stroke-width="44" stroke-linecap="round" stroke-linejoin="round"/>
<path d="M355.289 94.8448L471.009 84.0921M20 126L135.719 115.247" stroke="#33C85A" stroke-width="40" stroke-linecap="round"/>
</svg>
